<?xml version="1.0" encoding="utf-8"?>
<!-- Generator: Adobe Illustrator 16.0.0, SVG Export Plug-In . SVG Version: 6.00 Build 0)  -->
<!DOCTYPE svg PUBLIC "-//W3C//DTD SVG 1.1//EN" "http://www.w3.org/Graphics/SVG/1.1/DTD/svg11.dtd">
<svg version="1.1" id="Capa_1" xmlns="http://www.w3.org/2000/svg" xmlns:xlink="http://www.w3.org/1999/xlink" x="0px" y="0px"
	 width="35px" height="55px" viewBox="0 0 35 55" enable-background="new 0 0 35 55" xml:space="preserve">
<path fill="#FFFFFF" d="M17.5,22c-0.828,0-1.5-0.672-1.5-1.5v-7c0-0.828,0.672-1.5,1.5-1.5s1.5,0.672,1.5,1.5v7
	C19,21.328,18.328,22,17.5,22z"/>
<path fill="#FFFFFF" d="M17.5,55C7.851,55,0,47.149,0,37.5v-20C0,7.851,7.851,0,17.5,0S35,7.851,35,17.5v20
	C35,47.149,27.149,55,17.5,55z M17.5,2C8.953,2,2,8.953,2,17.5v20C2,46.047,8.953,53,17.5,53S33,46.047,33,37.5v-20
	C33,8.953,26.047,2,17.5,2z"/>
</svg>
